<svg id="mscgen_js-svg-__svg" class="mscgen_js-svg-__svg" xmlns="http://www.w3.org/2000/svg" xmlns:xlink="http://www.w3.org/1999/xlink" width="976" height="310" viewBox="0 0 976 310"><desc># Generated by mscgen_js - https://sverweij.github.io/mscgen_js
msc {
# options
hscale="1.5";
# entities
c [label="Client", textbgcolor="lime"],
rails [label="Rails", textbgcolor="cyan"],
etag [label="EtagCaching", textbgcolor="orange"],
redis [label="Redis", textbgcolor="white"];
# arcs
c =&gt; rails [label="GET /projects/5/pipelines"];
rails =&gt; etag [label="GET /projects/5/pipelines"];
etag =&gt; redis [label="read(key = 'GET &lt;Etag&gt;')"];
redis =&gt; etag [label="cache hit", linecolor="green", textcolor="green"];
|||;
etag =&gt; c [label="304 Not Modified", linecolor="blue", textcolor="blue"];
}</desc><defs><style>svg.mscgen_js-svg-__svg{font-family:Helvetica,sans-serif;font-size:12px;font-weight:400;font-style:normal;text-decoration:none;background-color:#fff;stroke:#000;stroke-width:2;color:#000}.mscgen_js-svg-__svg path,.mscgen_js-svg-__svg rect{fill:none;color:#000;stroke:#000}.mscgen_js-svg-__svg .label-text-background{fill:#fff;stroke:#fff;stroke-width:0}.mscgen_js-svg-__svg .bglayer{fill:#fff;stroke:#fff;stroke-width:0}.mscgen_js-svg-__svg line{stroke:#000}.mscgen_js-svg-__svg .return,.mscgen_js-svg-__svg .comment{stroke-dasharray:5,3}.mscgen_js-svg-__svg .inline_expression_divider{stroke-dasharray:10,5}.mscgen_js-svg-__svg text{color:inherit;stroke:none;text-anchor:middle}.mscgen_js-svg-__svg text.entity-text{text-decoration:underline}.mscgen_js-svg-__svg text.anchor-start{text-anchor:start}.mscgen_js-svg-__svg .arrow-marker{overflow:visible}.mscgen_js-svg-__svg .arrow-style{stroke-width:1}.mscgen_js-svg-__svg .arcrow,.mscgen_js-svg-__svg .arcrowomit,.mscgen_js-svg-__svg .emphasised{stroke-linecap:butt}.mscgen_js-svg-__svg .arcrowomit{stroke-dasharray:2,2}.mscgen_js-svg-__svg .box,.mscgen_js-svg-__svg .entity{fill:#fff;stroke-linejoin:round}.mscgen_js-svg-__svg .inherit{stroke:inherit;color:inherit}.mscgen_js-svg-__svg .inherit-fill{fill:inherit}.mscgen_js-svg-__svg .watermark{stroke:#000;color:#000;fill:#000;font-size:48pt;font-weight:700;opacity:.14}</style><marker orient="auto" id="mscgen_js-svg-__svgmethod-black" class="arrow-marker" viewBox="0 0 10 10" refX="9" refY="3" markerUnits="strokeWidth" markerWidth="10" markerHeight="10"><path d="M1 1 9 3 1 5z" class="arrow-style" stroke="#000" fill="#000"/></marker><marker orient="auto" id="mscgen_js-svg-__svgmethod-l-black" class="arrow-marker" viewBox="0 0 10 10" refX="9" refY="3" markerUnits="strokeWidth" markerWidth="10" markerHeight="10"><path d="M17 1 9 3l8 2z" class="arrow-style" stroke="#000" fill="#000"/></marker><marker orient="auto" id="mscgen_js-svg-__svgmethod-blue" class="arrow-marker" viewBox="0 0 10 10" refX="9" refY="3" markerUnits="strokeWidth" markerWidth="10" markerHeight="10"><path d="M1 1 9 3 1 5z" class="arrow-style" stroke="blue" fill="blue"/></marker><marker orient="auto" id="mscgen_js-svg-__svgmethod-l-blue" class="arrow-marker" viewBox="0 0 10 10" refX="9" refY="3" markerUnits="strokeWidth" markerWidth="10" markerHeight="10"><path d="M17 1 9 3l8 2z" class="arrow-style" stroke="blue" fill="blue"/></marker><marker orient="auto" id="mscgen_js-svg-__svgmethod-green" class="arrow-marker" viewBox="0 0 10 10" refX="9" refY="3" markerUnits="strokeWidth" markerWidth="10" markerHeight="10"><path d="M1 1 9 3 1 5z" class="arrow-style" stroke="green" fill="green"/></marker><marker orient="auto" id="mscgen_js-svg-__svgmethod-l-green" class="arrow-marker" viewBox="0 0 10 10" refX="9" refY="3" markerUnits="strokeWidth" markerWidth="10" markerHeight="10"><path d="M17 1 9 3l8 2z" class="arrow-style" stroke="green" fill="green"/></marker></defs><g id="mscgen_js-svg-__svg__body" transform="translate(53,3) scale(1,1)"><g id="mscgen_js-svg-__svg__background"><path d="M-53-3h976v310H-53z" class="bglayer"/></g><g id="mscgen_js-svg-__svg__arcspanlayer"/><g id="mscgen_js-svg-__svg__lifelinelayer"><path d="M75 38V76z" class="arcrow"/><path d="M315 38V76z" class="arcrow"/><path d="M555 38V76z" class="arcrow"/><path d="M795 38V76z" class="arcrow"/><path d="M75 76v38z" class="arcrow"/><path d="M315 76v38z" class="arcrow"/><path d="M555 76v38z" class="arcrow"/><path d="M795 76v38z" class="arcrow"/><path d="M75 114v38z" class="arcrow"/><path d="M315 114v38z" class="arcrow"/><path d="M555 114v38z" class="arcrow"/><path d="M795 114v38z" class="arcrow"/><path d="M75 152v38z" class="arcrow"/><path d="M315 152v38z" class="arcrow"/><path d="M555 152v38z" class="arcrow"/><path d="M795 152v38z" class="arcrow"/><path d="M75 190v38z" class="arcrow"/><path d="M315 190v38z" class="arcrow"/><path d="M555 190v38z" class="arcrow"/><path d="M795 190v38z" class="arcrow"/><path d="M75 228v38z" class="arcrow"/><path d="M315 228v38z" class="arcrow"/><path d="M555 228v38z" class="arcrow"/><path d="M795 228v38z" class="arcrow"/><path d="M75 266v38z" class="arcrow"/><path d="M315 266v38z" class="arcrow"/><path d="M555 266v38z" class="arcrow"/><path d="M795 266v38z" class="arcrow"/></g><g id="mscgen_js-svg-__svg__sequencelayer"><g id="mscgen_js-svg-__svgentities"><g><path d="M0 0h150v38H0z" class="entity" style="fill:lime"/><g><text x="75" y="22.5" class="entity-text"><tspan>Client</tspan></text></g></g><g><path d="M240 0h150v38H240z" class="entity" style="fill:cyan"/><g><text x="315" y="22.5" class="entity-text"><tspan>Rails</tspan></text></g></g><g><path d="M480 0h150v38H480z" class="entity" style="fill:orange"/><g><text x="555" y="22.5" class="entity-text"><tspan>EtagCaching</tspan></text></g></g><g><path d="M720 0h150v38H720z" class="entity" style="fill:#fff"/><g><text x="795" y="22.5" class="entity-text"><tspan>Redis</tspan></text></g></g></g><g><path d="M75 95H315z" class="arc directional method" style="stroke:#000" marker-end="url(#mscgen_js-svg-__svgmethod-black)"/><g><path d="M127.97 79.5h134.06v14H127.97z" class="label-text-background"/><text x="195" y="90.5" class="directional-text method-text"><tspan>GET /projects/5/pipelines</tspan></text></g></g><g><path d="M315 133H555z" class="arc directional method" style="stroke:#000" marker-end="url(#mscgen_js-svg-__svgmethod-black)"/><g><path d="M367.97 117.5h134.06v14H367.97z" class="label-text-background"/><text x="435" y="128.5" class="directional-text method-text"><tspan>GET /projects/5/pipelines</tspan></text></g></g><g><path d="M555 171H795z" class="arc directional method" style="stroke:#000" marker-end="url(#mscgen_js-svg-__svgmethod-black)"/><g><path d="M607.17 155.5h135.64v14H607.17z" class="label-text-background"/><text x="675" y="166.5" class="directional-text method-text"><tspan>read(key = 'GET &lt;Etag&gt;')</tspan></text></g></g><g><path d="M795 209H555z" class="arc directional method" style="stroke:green" marker-end="url(#mscgen_js-svg-__svgmethod-green)"/><g><path d="M650.98 193.5H699v14H650.98z" class="label-text-background"/><text x="675" y="204.5" class="directional-text method-text" style="fill:green"><tspan>cache hit</tspan></text></g></g><g/><g><path d="M555 285H75z" class="arc directional method" style="stroke:blue" marker-end="url(#mscgen_js-svg-__svgmethod-blue)"/><g><path d="M269.63 269.5h90.72v14H269.63z" class="label-text-background"/><text x="315" y="280.5" class="directional-text method-text" style="fill:blue"><tspan>304 Not Modified</tspan></text></g></g></g><g id="mscgen_js-svg-__svg__notelayer"/><g id="mscgen_js-svg-__svg__watermark"/></g></svg>