<svg width="64" height="64" viewBox="0 0 64 64" fill="none" xmlns="http://www.w3.org/2000/svg"><g clip-path="url(#clip0)"><path d="M16.4992 19.4816C18.9946 19.4816 21.0176 17.4587 21.0176 14.9632 21.0176 12.4678 18.9946 10.4448 16.4992 10.4448 14.0038 10.4448 11.9808 12.4678 11.9808 14.9632 11.9808 17.4587 14.0038 19.4816 16.4992 19.4816z" fill="#ac7fff"/><path d="M16.4992 32.1728C20.1288 32.1781 23.6481 30.9251 26.4576 28.6272 25.2171 27.2065 23.6869 26.0677 21.9698 25.2875 20.2527 24.5072 18.3885 24.1035 16.5024 24.1035 14.6163 24.1035 12.7521 24.5072 11.035 25.2875 9.31791 26.0677 7.7877 27.2065 6.54721 28.6272 9.35479 30.9242 12.8717 32.1772 16.4992 32.1728z" fill="#ac7fff"/><path d="M47.5136 49.9456c2.4955.0 4.5184-2.0229 4.5184-4.5184C52.032 42.9318 50.0091 40.9088 47.5136 40.9088 45.0182 40.9088 42.9952 42.9318 42.9952 45.4272 42.9952 47.9227 45.0182 49.9456 47.5136 49.9456z" fill="#fca121"/><path d="M47.5136 62.6368C51.1411 62.6412 54.658 61.3883 57.4656 59.0912 56.224 57.6724 54.6934 56.5353 52.9764 55.7563 51.2595 54.9772 49.3958 54.5742 47.5104 54.5742 45.625 54.5742 43.7613 54.9772 42.0444 55.7563 40.3274 56.5353 38.7968 57.6724 37.5552 59.0912 40.3653 61.3883 43.8842 62.6411 47.5136 62.6368z" fill="#fca121"/><path d="M52.0192 23.6031C51.6797 23.6031 51.3542 23.4683 51.1141 23.2282 50.8741 22.9882 50.7392 22.6626 50.7392 22.3231V13.1647H41.6C41.2605 13.1647 40.935 13.0299 40.6949 12.7898 40.4549 12.5498 40.32 12.2242 40.32 11.8847 40.32 11.5453 40.4549 11.2197 40.6949 10.9796 40.935 10.7396 41.2605 10.6047 41.6 10.6047H52.0192C52.3587 10.6047 52.6843 10.7396 52.9243 10.9796 53.1644 11.2197 53.2992 11.5453 53.2992 11.8847V22.3231C53.2992 22.6626 53.1644 22.9882 52.9243 23.2282 52.6843 23.4683 52.3587 23.6031 52.0192 23.6031z" fill="#380d75"/><path d="M22.9888 53.3631H11.8144C11.4749 53.3631 11.1493 53.2283 10.9093 52.9882 10.6693 52.7482 10.5344 52.4226 10.5344 52.0831V41.5999C10.5344 41.2605 10.6693 40.9349 10.9093 40.6948 11.1493 40.4548 11.4749 40.3199 11.8144 40.3199 12.1539 40.3199 12.4794 40.4548 12.7195 40.6948 12.9595 40.9349 13.0944 41.2605 13.0944 41.5999V50.8031H22.9888C23.3283 50.8031 23.6538 50.938 23.8939 51.1781 24.1339 51.4181 24.2688 51.7437 24.2688 52.0831 24.2688 52.4226 24.1339 52.7482 23.8939 52.9882 23.6538 53.2283 23.3283 53.3631 22.9888 53.3631z" fill="#380d75"/><path d="M16.4864 33.0624C12.5025 33.0603 8.65384 31.6168 5.65121 28.9984 5.5023 28.8657 5.38314 28.703 5.30154 28.521 5.21995 28.339 5.17776 28.1418 5.17776 27.9424 5.17776 27.7429 5.21995 27.5457 5.30154 27.3637 5.38314 27.1817 5.5023 27.0191 5.65121 26.8864 8.67008 24.2545 12.5443 22.8126 16.5493 22.8302 20.5543 22.8479 24.4157 24.324 27.4112 26.9824 27.5478 27.1023 27.6572 27.25 27.7322 27.4155 27.8073 27.581 27.8462 27.7606 27.8464 27.9424 27.8453 28.123 27.8059 28.3014 27.7309 28.4658 27.6559 28.6301 27.5469 28.7767 27.4112 28.896 24.4038 31.5775 20.5157 33.0603 16.4864 33.0624zM8.44801 27.9424C10.7986 29.6083 13.6085 30.5031 16.4896 30.5031 19.3707 30.5031 22.1806 29.6083 24.5312 27.9424 22.1806 26.2764 19.3707 25.3817 16.4896 25.3817 13.6085 25.3817 10.7986 26.2764 8.44801 27.9424z" fill="#380d75"/><path d="M16.4864 21.1201C15.2725 21.1201 14.0859 20.7601 13.0765 20.0857 12.0672 19.4113 11.2805 18.4527 10.816 17.3312 10.3515 16.2097 10.2299 14.9756 10.4667 13.7851 10.7036 12.5945 11.2881 11.5009 12.1465 10.6425 13.0048 9.78415 14.0984 9.1996 15.289 8.96278 16.4796 8.72596 17.7137 8.84751 18.8352 9.31205 19.9567 9.77659 20.9152 10.5633 21.5896 11.5726 22.264 12.5819 22.624 13.7685 22.624 14.9825 22.6223 16.6097 21.9751 18.1699 20.8245 19.3205 19.6738 20.4712 18.1137 21.1184 16.4864 21.1201zM16.4864 11.4049C15.7788 11.4049 15.0871 11.6147 14.4988 12.0078 13.9105 12.4009 13.4519 12.9596 13.1811 13.6134 12.9104 14.2671 12.8395 14.9864 12.9775 15.6804 13.1156 16.3744 13.4563 17.0119 13.9567 17.5122 14.457 18.0125 15.0945 18.3533 15.7884 18.4913 16.4824 18.6294 17.2018 18.5585 17.8555 18.2877 18.5092 18.0169 19.068 17.5584 19.4611 16.9701 19.8542 16.3817 20.064 15.69 20.064 14.9825 20.0657 14.5113 19.9744 14.0444 19.7955 13.6085 19.6165 13.1726 19.3534 12.7762 19.0211 12.4422 18.6888 12.1081 18.2939 11.8428 17.8589 11.6615 17.424 11.4802 16.9576 11.3865 16.4864 11.3857V11.4049z" fill="#380d75"/><path d="M3.43681 25.6512C3.21343 25.6499 2.99429 25.5901 2.80118 25.4778 2.60806 25.3656 2.44769 25.2047 2.336 25.0112.841296 22.5089.0367058 19.6551.0042281 16.7405-.0282496 13.826.712547 10.9549 2.15112 8.41992 3.5897 5.88493 5.67463 3.77664 8.19343 2.30991 10.7122.843176 13.5749.0704346 16.4896.0704346 19.4043.0704346 22.267.843176 24.7858 2.30991 27.3046 3.77664 29.3895 5.88493 30.8281 8.41992 32.2667 10.9549 33.0075 13.826 32.975 16.7405 32.9425 19.6551 32.1379 22.5089 30.6432 25.0112 30.4684 25.3032 30.1847 25.5137 29.8547 25.5965 29.5246 25.6794 29.1752 25.6277 28.8832 25.4528 28.5913 25.278 28.3807 24.9944 28.2979 24.6643 28.2151 24.3342 28.2668 23.9848 28.4416 23.6928 29.7045 21.5791 30.3843 19.1684 30.4119 16.7063 30.4395 14.2442 29.8139 11.8188 28.5987 9.67729 27.3836 7.53578 25.6224 5.75473 23.4946 4.51565 21.3669 3.27657 18.9487 2.62377 16.4864 2.62377 14.0242 2.62377 11.6059 3.27657 9.47819 4.51565 7.35044 5.75473 5.58924 7.53578 4.37409 9.67729 3.15894 11.8188 2.53328 14.2442 2.56088 16.7063 2.58848 19.1684 3.26835 21.5791 4.53121 23.6928 4.64297 23.8864 4.70211 24.1058 4.70273 24.3293 4.70336 24.5528 4.64545 24.7726 4.53477 24.9668 4.42409 25.161 4.2645 25.3228 4.07187 25.4361 3.87924 25.5495 3.66029 25.6104 3.43681 25.6128V25.6512z" fill="#380d75"/><path d="M47.5136 63.8657C43.4789 63.8676 39.5842 62.3872 36.5696 59.7057 36.4334 59.5855 36.3243 59.4378 36.2496 59.2723 36.1749 59.1068 36.1362 58.9273 36.1362 58.7457 36.1362 58.5641 36.1749 58.3845 36.2496 58.219 36.3243 58.0535 36.4334 57.9058 36.5696 57.7857 39.585 55.1055 43.4792 53.625 47.5136 53.625 51.548 53.625 55.4421 55.1055 58.4576 57.7857 58.5938 57.9058 58.7029 58.0535 58.7776 58.219 58.8523 58.3845 58.891 58.5641 58.891 58.7457 58.891 58.9273 58.8523 59.1068 58.7776 59.2723 58.7029 59.4378 58.5938 59.5855 58.4576 59.7057 55.4424 62.3861 51.548 63.8664 47.5136 63.8657zM39.4688 58.7457C41.8194 60.4116 44.6293 61.3064 47.5104 61.3064 50.3915 61.3064 53.2014 60.4116 55.552 58.7457 53.1996 57.0842 50.3903 56.1922 47.5104 56.1922 44.6304 56.1922 41.8212 57.0842 39.4688 58.7457z" fill="#380d75"/><path d="M47.5136 51.904C46.2997 51.904 45.113 51.544 44.1037 50.8696 43.0944 50.1952 42.3077 49.2366 41.8432 48.1151 41.3786 46.9936 41.2571 45.7596 41.4939 44.569 41.7307 43.3784 42.3153 42.2848 43.1736 41.4264 44.032 40.5681 45.1256 39.9835 46.3162 39.7467 47.5068 39.5099 48.7408 39.6314 49.8623 40.096 50.9838 40.5605 51.9424 41.3472 52.6168 42.3565 53.2912 43.3658 53.6512 44.5525 53.6512 45.7664 53.6495 47.3937 53.0023 48.9538 51.8516 50.1045 50.701 51.2551 49.1409 51.9023 47.5136 51.904zM47.5136 42.1952C46.8057 42.1952 46.1138 42.4052 45.5253 42.7986 44.9368 43.192 44.4783 43.7511 44.2077 44.4052 43.9371 45.0593 43.8666 45.7789 44.0052 46.4731 44.1438 47.1673 44.4851 47.8047 44.9861 48.3048 45.4871 48.8049 46.1251 49.1451 46.8196 49.2824 47.514 49.4197 48.2335 49.348 48.8871 49.0762 49.5407 48.8045 50.099 48.3449 50.4914 47.7557 50.8837 47.1666 51.0924 46.4742 51.0912 45.7664 51.0895 44.8187 50.7118 43.9103 50.0411 43.2408 49.3703 42.5712 48.4613 42.1952 47.5136 42.1952z" fill="#380d75"/><path d="M34.4576 56.4608C34.2342 56.4594 34.0151 56.3996 33.822 56.2874 33.6288 56.1751 33.4685 56.0142 33.3568 55.8208 31.8594 53.3177 31.0526 50.4623 31.0187 47.5457 30.9848 44.6291 31.7249 41.7557 33.1637 39.2185 34.6024 36.6812 36.6883 34.5709 39.2087 33.1028 41.729 31.6346 44.5936 30.8611 47.5104 30.8611 50.4272 30.8611 53.2918 31.6346 55.8121 33.1028 58.3324 34.5709 60.4183 36.6812 61.8571 39.2185 63.2958 41.7557 64.036 44.6291 64.0021 47.5457 63.9681 50.4623 63.1614 53.3177 61.664 55.8208 61.5924 55.9872 61.4862 56.1365 61.3526 56.2589 61.2189 56.3812 61.0608 56.4738 60.8888 56.5305 60.7167 56.5872 60.5345 56.6067 60.3543 56.5878 60.1741 56.5688 60 56.5118 59.8435 56.4206 59.6869 56.3293 59.5516 56.2058 59.4463 56.0583 59.3411 55.9109 59.2683 55.7427 59.2329 55.565 59.1975 55.3873 59.2002 55.2041 59.2409 55.0276 59.2815 54.851 59.3592 54.6851 59.4688 54.5408 60.7304 52.4269 61.4092 50.0164 61.436 47.5549 61.4627 45.0933 60.8365 42.6686 59.6212 40.5279 58.4058 38.3871 56.6447 36.6067 54.5172 35.3681 52.3898 34.1296 49.9721 33.477 47.5104 33.477 45.0487 33.477 42.6309 34.1296 40.5035 35.3681 38.3761 36.6067 36.615 38.3871 35.3996 40.5279 34.1842 42.6686 33.558 45.0933 33.5848 47.5549 33.6116 50.0164 34.2903 52.4269 35.552 54.5408 35.7262 54.8312 35.7782 55.1788 35.6966 55.5075 35.615 55.8361 35.4065 56.1191 35.1168 56.2944 34.9161 56.4082 34.6883 56.4657 34.4576 56.4608z" fill="#380d75"/></g><defs><clipPath id="clip0"><path d="M0 0h64v64H0z" fill="#fff"/></clipPath></defs></svg>