<svg width="14" height="14" viewBox="0 0 14 14" fill="none" xmlns="http://www.w3.org/2000/svg"><path fill-rule="evenodd" clip-rule="evenodd" d="M9.47653 10.8907C8.49572 11.5892 7.29583 12 6 12 2.68629 12 0 9.31371.0 6 0 2.68629 2.68629.0 6 0 9.31371.0 12 2.68629 12 6 12 7.29583 11.5892 8.49572 10.8907 9.47653L13.7071 12.2929C14.0976 12.6834 14.0976 13.3166 13.7071 13.7071 13.3166 14.0976 12.6834 14.0976 12.2929 13.7071L9.47653 10.8907zM10 6C10 8.20914 8.20914 10 6 10 3.79086 10 2 8.20914 2 6 2 3.79086 3.79086 2 6 2 8.20914 2 10 3.79086 10 6z" fill="#f1f1ff"/></svg>