<svg width="1002" height="249" viewBox="0 0 1002 249" fill="none" xmlns="http://www.w3.org/2000/svg"><path d="M941 96V85C941 71.7452 930.255 61 917 61H127" stroke="#c7c7f2"/><path d="M941 112v17" stroke="#c7c7f2"/><circle cx="941" cy="104" r="8" stroke="#c7c7f2"/><path d="M12.2365 29C22.865 12.1747 41.6275 1 63 1 93.4246 1 118.56 23.6451 122.471 53M4.41214 74C10.3514 100.887 34.3269 121 63 121 80.2824 121 95.8583 113.693 106.807 102" stroke="#c7c7f2"/><path d="M25.5735 73.8317H25.2113L24.933 74.0637 16.7794 80.8639V74.8317v-1H15.7794 4c-1.65686.0-3-1.343199999999996-3-3V32C1 30.3431 2.34315 29 4 29H70C71.6569 29 73 30.3431 73 32V70.8317C73 72.4885 71.6569 73.8317 70 73.8317H25.5735z" stroke="#c7c7f2" stroke-width="2"/><path d="M101.426 97.8317H101.789L102.067 98.0637 110.221 104.864V98.8317v-1h1H123C124.657 97.8317 126 96.4885 126 94.8317V56C126 54.3431 124.657 53 123 53H57C55.3431 53 54 54.3431 54 56V94.8317C54 96.4885 55.3431 97.8317 57 97.8317h44.426z" stroke="#c7c7f2" stroke-width="2"/><g clip-path="url(#clip0)"><path d="M92.0422 72.2127 91.656 73.5H93 98.9832C100.298 73.5 101.255 74.7466 100.915 76.0165L99.1316 82.6887C98.4206 85.3484 95.6932 86.9329 93.0306 86.2332L83.5 83.7288V72.9142L89.7931 66.6211C91.2623 65.1519 93.72 66.6199 93.123 68.61L92.0422 72.2127z" stroke="#c7c7f2" stroke-width="2"/><path d="M82.5 73.625H79.125v9.75H82.5" stroke="#c7c7f2" stroke-width="2"/></g><path d="M988.625 151.5C996.386 161.612 1001 174.267 1001 188 1001 221.137 974.137 248 941 248 907.863 248 881 221.137 881 188 881 154.863 907.863 128 941 128 952.94 128 964.066 131.488 973.413 137.5" stroke="#c7c7f2"/><circle cx="983" cy="142" r="11" stroke="#c7c7f2" stroke-width="2"/><path fill-rule="evenodd" clip-rule="evenodd" d="M988.707 138.293C989.098 138.683 989.098 139.317 988.707 139.707l-6 6C982.317 146.098 981.683 146.098 981.293 145.707l-3-3C977.902 142.317 977.902 141.683 978.293 141.293 978.683 140.902 979.317 140.902 979.707 141.293L982 143.586 987.293 138.293C987.683 137.902 988.317 137.902 988.707 138.293z" fill="#c7c7f2"/><path d="M892 210h98v3C990 215.209 988.209 217 986 217H896C893.791 217 892 215.209 892 213v-3z" stroke="#c7c7f2" stroke-width="2"/><path d="M899 164C899 161.791 900.791 160 903 160h76C981.209 160 983 161.791 983 164v46H899V164z" stroke="#c7c7f2" stroke-width="2"/><path d="M904 165h74v45H904V165z" stroke="#c7c7f2"/><circle cx="941" cy="182" r="10" stroke="#c7c7f2" stroke-width="2"/><path d="M920 210v-6C920 197.373 925.373 192 932 192h18C956.627 192 962 197.373 962 204v6" stroke="#c7c7f2" stroke-width="2"/><defs><clipPath id="clip0"><path d="M0 0h24v24H0z" fill="#fff" transform="translate(78 65)"/></clipPath></defs></svg>