<svg fill="none" height="411" viewBox="0 0 667 411" width="667" xmlns="http://www.w3.org/2000/svg" xmlns:xlink="http://www.w3.org/1999/xlink"><filter id="e" color-interpolation-filters="sRGB" filterUnits="userSpaceOnUse" height="356" width="440" x="227" y="55"><feFlood flood-opacity="0" result="BackgroundImageFix"/><feBlend in="SourceGraphic" in2="BackgroundImageFix" result="shape"/><feGaussianBlur result="effect1_foregroundBlur" stdDeviation="28"/></filter><radialGradient id="b" cx="0" cy="0" gradientTransform="matrix(-281.99833 -229.00226 334.97167 -412.49136 410 298)" gradientUnits="userSpaceOnUse" r="1"><stop offset="0" stop-color="#2a2b30"/><stop offset="1" stop-color="#1d1e23" stop-opacity="0"/></radialGradient><linearGradient id="c" gradientUnits="userSpaceOnUse" x1="326.999" x2="279.999" y1="60" y2="142"><stop offset="0" stop-color="#ffec6e" stop-opacity=".3"/><stop offset="1" stop-opacity="0"/></linearGradient><linearGradient id="a"><stop offset="0" stop-color="#1d1e23" stop-opacity=".85"/><stop offset=".25" stop-color="#222328" stop-opacity=".87"/><stop offset=".58" stop-color="#313137" stop-opacity=".91"/><stop offset=".95" stop-color="#48484f" stop-opacity=".99"/><stop offset="1" stop-color="#4c4c53"/></linearGradient><linearGradient id="f" gradientUnits="userSpaceOnUse" x1="326.193" x2="365.807" xlink:href="#a" y1="194.307" y2="125.693"/><linearGradient id="g" gradientUnits="userSpaceOnUse" x1="326.193" x2="365.807" xlink:href="#a" y1="260.307" y2="191.693"/><linearGradient id="h" gradientUnits="userSpaceOnUse" x1="326.193" x2="365.807" xlink:href="#a" y1="330.307" y2="261.693"/><linearGradient id="i" gradientUnits="userSpaceOnUse" x1="508.397" x2="538.807" xlink:href="#a" y1="317.761" y2="265.08"/><linearGradient id="j" gradientUnits="userSpaceOnUse" x1="519.883" x2="550.294" y1="326.36" y2="273.679"><stop offset="0" stop-color="#1d1e23" stop-opacity=".76"/><stop offset=".25" stop-color="#313239" stop-opacity=".96"/><stop offset=".58" stop-color="#464650" stop-opacity=".91"/><stop offset=".95" stop-color="#48484f" stop-opacity=".99"/><stop offset="1" stop-color="#4c4c53"/></linearGradient><linearGradient id="k" gradientUnits="userSpaceOnUse" x1="506.661" x2="556.642" xlink:href="#a" y1="216.452" y2="234.645"/><linearGradient id="l" gradientUnits="userSpaceOnUse" x1="522.332" x2="543.562" xlink:href="#a" y1="181.322" y2="144.551"/><clipPath id="d"><path d="M302 68h45v52h-45z"/></clipPath><rect fill="#1d1e23" height="368.91" rx="2" width="477.789"/><rect fill="url(#b)" height="326.639" rx="2" width="477.789" y="42.27"/><path d="M0 42.27h147.308v326.64H0z" fill="#000" opacity=".8"/><path d="M0 2a2 2 0 012-2h473.789a2 2 0 012 2v40.27H0z" fill="#000"/><circle cx="30.526" cy="21.038" fill="#1d1e23" r="6.188"/><circle cx="48.979" cy="21.038" fill="#1d1e23" r="6.188"/><circle cx="66.912" cy="21.038" fill="#1d1e23" r="6.188"/><rect fill="#1d1e23" height="11.528" rx="5.764" width="81.98" x="24.338" y="114.003"/><rect fill="#1d1e23" height="8.967" rx="4.483" width="66.609" x="24.338" y="138.341"/><rect fill="#1d1e23" height="11.528" rx="5.764" width="66.609" x="178.05" y="114.003"/><path d="M32.594 54.836l-6.767 3.903v9.377l2.542 1.468v-9.377l4.225-2.439z" fill="#4c4c53"/><path d="M35.295 54.836v7.467h-2.7v-2.786l-2.544 1.468v9.567l2.543 1.47v-7.446h2.701v2.769l2.542-1.468v-9.573z" fill="#4c4c53"/><path d="M35.296 72.026l6.767-3.903v-9.377l-2.543-1.468v9.378l-4.224 2.438z" fill="#4c4c53"/><rect fill="#1d1e23" height="5.124" rx="2.562" width="65.328" x="56.361" y="324.077"/><circle cx="33.945" cy="327.279" fill="#1d1e23" r="13.45"/><path d="M170.364 67.89h176.769v98.632H170.364z" fill="#000"/><path d="M170.364 67.89h176.769v98.632H170.364z" fill="url(#c)"/><g clip-path="url(#d)" fill="#ffec6e"><path d="M345.922 68l-30.009 52h-.338l29.996-52zm-2.845 0l-29.996 52h.338l29.995-52zm-2.495 0l-29.995 52h.338l29.995-52zm-2.507 0l-29.995 52h.337l29.996-52zm-2.494 0l-29.996 52h.338l29.996-52zm-2.507 0l-29.996 52h.338l29.996-52zM347 95.872v.585L333.412 120h-.338zM335.581 120h.338L347 100.786v-.585zm2.495 0h.337L347 105.115v-.585zm2.507 0h.338l6.092-10.556v-.585zm2.494 0h.338l3.585-6.214v-.585zm2.494 0h.338l1.091-1.885v-.585z"/></g><path d="M189.209 93.87l17.128 34.382 17.255-34.383zm19.149 6.914h1.995v1.979h-1.995zm-3.968 7.979h-1.974v-2.011h1.99zm0-2.99h-1.974v-2.01h1.99zm0-2.989h-1.974v-2.011h1.99zm2.989 8.973h-1.973v-2.016h1.989zm0-2.994h-1.973v-2.011h1.989zm0-2.99h-1.973v-2.01h1.989zm0-2.989h-1.973v-2.011h1.989zm.979.979h1.995v1.989h-1.995zm0 4.978v-1.989h1.989v1.989z" fill="#fff"/><circle cx="206.483" cy="165.882" fill="#ffec6e" r="4.483"/><g filter="url(#e)" opacity=".15"><path d="M283 111h328v244H283z" fill="#000"/></g><path d="M278 114a2 2 0 012-2h323a2 2 0 012 2v228a2 2 0 01-2 2H280a2 2 0 01-2-2z" fill="#000"/><path d="M493 167h-38.148v55H386m0 8h108m-108 70h108M386 159h108m-1 133h-38.148v-54H386" stroke="#ffec6e" stroke-linecap="round" stroke-linejoin="round"/><path d="M206.028 173.77v56.653h100.249M258 231v66.654h49.249" stroke="#ffec6e" stroke-dasharray="2 3" stroke-linecap="round" stroke-linejoin="round"/><path d="M258 230v-73h49" stroke="#ffec6e" stroke-dasharray="2 3" stroke-linecap="round" stroke-linejoin="round"/><path d="M375 131h-58v58h58z" fill="url(#f)"/><path d="M357 152v6h-6m-16 10v-6h6" stroke="#fff" stroke-linecap="round" stroke-linejoin="round" stroke-width="1.5"/><path d="M337.51 157a9 9 0 0114.85-3.36L357 158m-22 4l4.64 4.36a9 9 0 0014.85-3.36" stroke="#fff" stroke-linecap="round" stroke-linejoin="round" stroke-width="1.5"/><path d="M375 197h-58v58h58z" fill="url(#g)"/><path d="M357 221v6h-6m-16 10v-6h6" stroke="#fff" stroke-linecap="round" stroke-linejoin="round" stroke-width="1.5"/><path d="M337.51 226a9 9 0 0114.85-3.36L357 227m-22 4l4.64 4.36a9 9 0 0014.85-3.36" stroke="#fff" stroke-linecap="round" stroke-linejoin="round" stroke-width="1.5"/><path d="M375 267h-58v58h58z" fill="url(#h)"/><path d="M357 288v6h-6m-16 10v-6h6" stroke="#fff" stroke-linecap="round" stroke-linejoin="round" stroke-width="1.5"/><path d="M337.51 293a9 9 0 0114.85-3.36L357 294m-22 4l4.64 4.36a9 9 0 0014.85-3.36" stroke="#fff" stroke-linecap="round" stroke-linejoin="round" stroke-width="1.5"/><path d="M542.262 267H505v48.727h37.262z" fill="url(#i)"/><path d="M553.748 275.599h-37.262v48.726h37.262z" fill="url(#j)"/><path d="M545.149 284.197h-10.032m10.032 5.017h-10.032m10.032 5.015h-10.032" stroke="#000" stroke-linejoin="round" stroke-miterlimit="10" stroke-width="2"/><path d="M531.6 199c14.72 0 26.6 11.88 26.6 26.6s-11.88 26.6-26.6 26.6-26.6-11.88-26.6-26.6 12.009-26.6 26.6-26.6z" fill="url(#k)"/><g fill="#7f7f86"><path clip-rule="evenodd" d="M531.213 227.924a2.314 2.314 0 01-2.324-2.324c0-1.292 1.033-2.325 2.324-2.325s2.324 1.033 2.324 2.325c.129 1.291-1.033 2.324-2.324 2.324zm4.648-1.291c-.645 0-1.033-.517-1.033-1.162 0-.646.517-1.033 1.033-1.033.646 0 1.033.516 1.033 1.033 0 .516-.387 1.162-1.033 1.162zm4.003 1.033c0 .516-.517 1.033-1.033 1.033-.517 0-1.033-.517-1.033-1.033 0-.517.516-1.033 1.033-1.033.645 0 1.033.387 1.033 1.033 0-.129 0-.129 0 0zm-.774-2.841c-.517.13-1.162-.258-1.292-.774-.129-.646.259-1.162.775-1.292.646-.129 1.162.259 1.291.775v.388c0 .516-.258.774-.774.903zm3.873 2.712c-.129.645-.646 1.033-1.291.904-.646-.13-1.033-.646-.904-1.292.129-.645.646-1.033 1.291-.904.646.13 1.033.646.904 1.292.129-.129.129 0 0 0zm-.775-2.712c-.646.129-1.162-.258-1.291-.904-.129-.645.258-1.162.904-1.291.645-.129 1.162.258 1.291.904v.258c-.129.517-.517.904-.904 1.033zm-.774 6.457c-.387.516-1.033.645-1.55.258-.387-.258-.645-.904-.387-1.291.258-.517.904-.775 1.55-.388.387.259.645.646.516 1.033 0 .129-.129.259-.129.388zm-.517-9.944c-.516.259-1.162.13-1.549-.387-.258-.516-.129-1.162.387-1.549.517-.259 1.162-.13 1.55.387.129.129.129.387.129.646.129.387-.129.645-.517.903z" fill-rule="evenodd"/><path d="M531.342 236.575c-6.069 0-10.976-4.906-10.976-10.975s4.907-10.976 10.976-10.976c2.453 0 4.778.775 6.714 2.324l-1.291 1.808c-3.486-2.712-8.522-2.324-11.621.775-3.487 3.357-3.616 8.91-.258 12.525 3.228 3.357 8.393 3.616 11.879.775l1.291 1.808c-1.936 1.162-4.39 1.936-6.714 1.936z"/></g><path d="M547.294 148.994c-1.8 0-3.6.4-5.3 1-5.4-9.5-17.5-12.8-27-7.4s-12.8 17.5-7.4 27c3.5 6.2 10.1 10 17.2 10h22.5c8.4 0 15.3-6.9 15.3-15.3s-6.9-15.2-15.3-15.3z" fill="url(#l)"/><path d="M528.394 162.294c0 .2 0 .5.1.7l.3.6c0 .1.1.1.1.2s-.1.2-.2.2l-.5.4c-.1 0-.1.1-.2.1s-.2 0-.2-.1c-.1-.1-.2-.2-.3-.4s-.2-.3-.3-.5c-.6.7-1.5 1.2-2.4 1.1-.6 0-1.2-.2-1.7-.6-.9-1-.8-2.4.1-3.3.6-.5 1.3-.7 2-.6.3 0 .6 0 .9.1.3 0 .6.1 1 .2v-.6c0-.5-.1-1-.4-1.3-.4-.3-.9-.4-1.4-.4-.3 0-.6 0-.9.1l-.9.3c-.1 0-.2.1-.3.1h-.1c-.1 0-.2-.1-.2-.3v-.5c0-.1 0-.2.1-.3l.2-.2c.3-.2.7-.3 1-.4.4-.1.9-.2 1.3-.2.8-.1 1.6.2 2.2.7.5.6.8 1.3.7 2.1zm-3.5 1.3c.3 0 .6-.1.9-.1.3-.1.6-.3.8-.5.1-.2.2-.3.3-.5s.1-.5.1-.7v-.4c-.3-.1-.5-.1-.8-.1s-.5 0-.8-.1c-.4 0-.9.1-1.2.3-.5.5-.5 1.3-.1 1.9.2.1.5.2.8.2zm6.7.9c-.1 0-.2 0-.3-.1s-.2-.2-.2-.3l-2-6.4c0-.1-.1-.2-.1-.3s.1-.2.2-.2h.8c.1 0 .2 0 .3.1s.1.2.2.3l1.4 5.5 1.3-5.5c0-.1.1-.2.2-.3s.2-.1.3-.1h.7c.1 0 .2 0 .3.1s.1.2.2.3l1.3 5.6 1.4-5.6c0-.1.1-.2.2-.3s.2-.1.3-.1h.8c.1 0 .2.1.2.2v.1c0 .1 0 .1-.1.2l-2 6.4c0 .1-.1.2-.2.3s-.2.1-.3.1h-.7c-.1 0-.2 0-.3-.1s-.1-.2-.2-.3l-1.3-5.4-1.2 5.4c0 .1-.1.2-.2.3s-.2.1-.3.1zm10.8.2c-.4 0-.9-.1-1.3-.1-.3-.1-.7-.2-1-.3-.1-.1-.2-.1-.3-.2 0-.1 0-.2-.1-.2v-.4c0-.2.1-.3.2-.3h.1l.2.1.9.3c.3.1.7.1 1 .1.4 0 .8-.1 1.2-.3.3-.2.4-.5.4-.8 0-.2-.1-.4-.2-.6-.2-.2-.5-.4-.8-.4l-1.2-.4c-.5-.1-1-.4-1.3-.9-.3-.3-.4-.8-.4-1.2 0-.3.1-.6.2-.9s.4-.5.6-.7c.3-.2.6-.4.9-.4.3-.1.7-.1 1.1-.1h.6l.5.1.5.1c.1 0 .2.1.4.1.1.1.2.1.2.2.1.1.1.2.1.3v.4c0 .2-.1.3-.2.3s-.2 0-.3-.1c-.5-.2-1.1-.3-1.6-.3-.4 0-.8.1-1.1.2-.3.2-.4.4-.4.7 0 .2.1.4.2.6.3.2.6.4.9.4l1.2.4c.5.1 1 .4 1.3.8.3.3.4.7.4 1.2 0 .3-.1.7-.2 1s-.4.5-.6.7c-.3.2-.6.4-.9.5-.4 0-.8.1-1.2.1zm1.5 4.1c-3 2-6.5 3.1-10.2 3.1-4.6 0-9-1.7-12.4-4.7-.3-.2 0-.6.3-.4 6.7 3.9 14.8 4.4 21.9 1.4.5-.3.9.2.4.6zm1.2-1.3c-.4-.4-2.3-.2-3.2-.1-.3 0-.3-.2-.1-.4 1.6-1.1 4.1-.8 4.4-.4s-.1 3-1.6 4.2c-.2.2-.4.1-.3-.2.4-.8 1.2-2.7.8-3.1z" fill="#7f7f86"/><rect fill="#1d1e23" height="28" rx="14" width="28" x="361" y="258"/><path d="M374.908 267.892c-.785.792-1.08 1.881-.785 2.871l-3.927 3.96c-.098 0-.098.099-.098.198l-.098 1.782c0 .099.098.297.196.297l2.356-.297c.098 0 .196-.099.196-.297v-.792h.884c.098 0 .294-.099.294-.297v-.891h.884c.098 0 .098 0 .196-.099l1.276-1.287c1.669.396 3.239-.594 3.632-2.277.392-1.683-.589-3.267-2.258-3.663-.981-.297-2.061.099-2.748.792z" fill="#bdbec2"/><circle cx="377" cy="270" fill="#1d1e23" r="1"/><rect fill="#1d1e23" height="28" rx="14" width="28" x="361" y="190"/><path d="M374.908 199.892c-.785.792-1.08 1.881-.785 2.871l-3.927 3.96c-.098 0-.098.099-.098.198l-.098 1.782c0 .099.098.297.196.297l2.356-.297c.098 0 .196-.099.196-.297v-.792h.884c.098 0 .294-.099.294-.297v-.891h.884c.098 0 .098 0 .196-.099l1.276-1.287c1.669.396 3.239-.594 3.632-2.277.392-1.683-.589-3.267-2.258-3.663-.981-.297-2.061.099-2.748.792z" fill="#bdbec2"/><circle cx="377" cy="202" fill="#1d1e23" r="1"/><rect fill="#1d1e23" height="28" rx="14" width="28" x="361" y="122"/><path d="M374.908 131.892c-.785.792-1.08 1.881-.785 2.871l-3.927 3.96c-.098 0-.098.099-.098.198l-.098 1.782c0 .099.098.297.196.297l2.356-.297c.098 0 .196-.099.196-.297v-.792h.884c.098 0 .294-.099.294-.297v-.891h.884c.098 0 .098 0 .196-.099l1.276-1.287c1.669.396 3.239-.594 3.632-2.277.392-1.683-.589-3.267-2.258-3.663-.981-.297-2.061.099-2.748.792z" fill="#bdbec2"/><circle cx="377" cy="134" fill="#1d1e23" r="1"/></svg>