<svg fill="none" height="80" viewBox="0 0 80 80" width="80" xmlns="http://www.w3.org/2000/svg"><linearGradient id="a" gradientUnits="userSpaceOnUse" x1="11.5" x2="36.359" y1="45" y2="71.48"><stop offset="0" stop-color="#fff9cf"/><stop offset="1" stop-color="#ffec6e"/></linearGradient><path d="M0 0h80v80H0z" fill="#fff"/><circle cx="40" cy="40" fill="url(#a)" fill-opacity=".65" r="32"/><path d="M40 69c16.016 0 29-12.984 29-29S56.016 11 40 11 11 23.984 11 40" stroke="#000" stroke-width="6"/><circle cx="40" cy="40" fill="#ffec6e" r="26"/><path d="M48.026 31.978A6.716 6.716 0 0043.246 30c-.298 0-.6.019-.897.06a6.8 6.8 0 00-4.971 3.345 6.797 6.797 0 00-.36 5.98.079.079 0 01-.018.089l-7 6.998V50h3.513l.904-.904a.444.444 0 00.126-.33v-1.66c0-.152.123-.278.277-.278h1.512a.59.59 0 00.422-.176.618.618 0 00.173-.416v-1.502c0-.151.123-.277.278-.277h1.688c.12 0 .236-.05.318-.139l1.327-1.326a.077.077 0 01.05-.019l.032.006a6.754 6.754 0 005.976-.362 6.805 6.805 0 003.345-4.967 6.8 6.8 0 00-1.915-5.672zm-2.347 5.43a2.175 2.175 0 01-3.553-.706 2.168 2.168 0 01.472-2.371 2.158 2.158 0 011.54-.637c.287 0 .568.057.832.167a2.175 2.175 0 01.709 3.547z" stroke="#000" stroke-linecap="round" stroke-linejoin="round" stroke-width="1.75"/></svg>