<svg fill="none" height="80" viewBox="0 0 80 80" width="80" xmlns="http://www.w3.org/2000/svg"><linearGradient id="a" gradientUnits="userSpaceOnUse" x1="8" x2="55.912" y1="52" y2="12.779"><stop offset="0" stop-color="#fff9cf"/><stop offset="1" stop-color="#ffec6e"/></linearGradient><path d="M0 0h80v80H0z" fill="#fff"/><rect fill="url(#a)" height="44" opacity=".6" rx="1.5" width="44" x="8" y="8"/><path d="M26 26h44v44H26z" fill="#000"/><rect fill="#ffec6e" height="44" rx="1.5" width="44" x="17" y="17"/><g stroke="#000" stroke-linecap="round" stroke-linejoin="round" stroke-width="2"><path clip-rule="evenodd" d="M31.5 40.167a2 2 0 012-2h11a2 2 0 012 2v5.167a2 2 0 01-2 2h-11a2 2 0 01-2-2z"/><path d="M34.833 38.167v-3.333a4.167 4.167 0 018.333 0v3.333"/></g></svg>