<svg fill="none" height="80" viewBox="0 0 80 80" width="80" xmlns="http://www.w3.org/2000/svg"><linearGradient id="a" gradientUnits="userSpaceOnUse" x1="14" x2="31.342" y1="9" y2="11.734"><stop offset="0" stop-color="#fff9cf"/><stop offset="1" stop-color="#ffec6e"/></linearGradient><path d="M0 0h80v80H0z" fill="#fff"/><rect fill="#000" height="54" rx="1.5" width="43" x="23" y="13"/><path d="M57 69.5a1.5 1.5 0 01-1.5 1.5H22V9h33.5a1.5 1.5 0 011.5 1.5z" fill="#ffec6e"/><rect fill="#000" height="3" rx="1.5" width="12" x="32" y="14"/><path d="M22 9v62h-6.5a1.5 1.5 0 01-1.5-1.5v-59A1.5 1.5 0 0115.5 9z" fill="url(#a)" opacity=".7"/><g stroke="#000" stroke-linecap="round" stroke-linejoin="round"><path d="M43.666 53.5v-1.667a3.333 3.333 0 00-3.333-3.333h-6.667a3.333 3.333 0 00-3.333 3.333V53.5" stroke-width="2"/><path clip-rule="evenodd" d="M37 45.167a3.333 3.333 0 100-6.667 3.333 3.333 0 000 6.667z" stroke-width="1.5"/></g></svg>